# xmcd
#
# Track frame offsets:
# 150
# 13688
# 25821
# 38144
# 52104
# 64061
# 76321
# 88579
# 99011
# 110924
#
# Disc length: 1651 seconds
#
#
# Revision: 0
# Processed by: cddbd v1.5PL3 Copyright (c) Steve Scherf et al.
# Submitted via: FreeRIP 2.53 
#
DISCID=7706710a
DTITLE=Loretta Lynn - Blue-Eyed Kentucky Girl
DYEAR=1900
DGENRE=Country
TTITLE0=Coal Miner's Daughter
TTITLE1=Rated X
TTITLE2=Blue-Eyed Kentucky Girl
TTITLE3=When The Tingle Becomes A Chill
TTITLE4=The Pill
TTITLE5=Somebody Lied Me Away
TTITLE6=Another Man Loved Me Last Night
TTITLE7=You're Looking At Country
TTITLE8=The Home Your Trarin' Down
TTITLE9=What Kind Of Girl Do You Think I Am
EXTD=
EXTT0=
EXTT1=
EXTT2=
EXTT3=
EXTT4=
EXTT5=
EXTT6=
EXTT7=
EXTT8=
EXTT9=
PLAYORDER=
